<svg xmlns="http://www.w3.org/2000/svg" width="210" height="230" style="background:#f9f9fb"><g fill="none" fill-rule="evenodd"><path fill="#40354E" d="M41.867 177.2l3.248 6.314 3.22-6.314h2.142v9.8h-1.722v-7.028l-3.052 6.02h-1.204l-3.066-6.02V187h-1.708v-9.8h2.142zm17.402 7.728h-4.788L53.613 187h-1.946l4.298-9.8h1.946l4.242 9.8h-2.016l-.868-2.072zm-.672-1.61l-1.708-4.116-1.736 4.116h3.444zm10.654-6.118v1.666h-3.052V187h-1.89v-8.134h-3.052V177.2h7.994zm3.024 5.768c0 .775.22 1.381.658 1.82.439.439 1.027.658 1.764.658.737 0 1.318-.22 1.743-.658.425-.439.637-1.045.637-1.82V177.2h1.876v5.768c0 .85-.173 1.589-.518 2.219a3.51 3.51 0 0 1-1.477 1.449c-.64.336-1.393.504-2.261.504-.877 0-1.64-.168-2.289-.504a3.492 3.492 0 0 1-1.491-1.449c-.345-.63-.518-1.37-.518-2.219V177.2h1.876v5.768zM87.297 187l-1.694-2.898c-.075.01-.191.014-.35.014h-2.212V187h-1.876v-9.8h4.088c1.27 0 2.25.294 2.94.882.69.588 1.036 1.419 1.036 2.492 0 .765-.166 1.419-.497 1.96-.331.541-.814.947-1.449 1.218L89.439 187h-2.142zm-4.256-4.536h2.212c.71 0 1.25-.154 1.624-.462.373-.308.56-.765.56-1.372 0-.597-.187-1.045-.56-1.344-.373-.299-.915-.448-1.624-.448h-2.212v3.626zm15.428-5.264v1.638h-5.306v2.422h4.76v1.638h-4.76v2.464h5.474V187h-7.35v-9.8h7.182zm12.6 2.828a3.69 3.69 0 0 0-1.225-.938 3.312 3.312 0 0 0-1.435-.336c-.607 0-1.162.145-1.666.434-.504.29-.9.688-1.19 1.197a3.325 3.325 0 0 0-.434 1.673c0 .607.145 1.164.434 1.673a3.246 3.246 0 0 0 2.856 1.645 3.5 3.5 0 0 0 1.407-.308c.471-.205.889-.49 1.253-.854l1.106 1.232a5.785 5.785 0 0 1-1.792 1.239 5.05 5.05 0 0 1-2.072.455 5.128 5.128 0 0 1-2.59-.672 4.926 4.926 0 0 1-1.848-1.827 4.988 4.988 0 0 1-.672-2.555c0-.933.229-1.783.686-2.548a4.928 4.928 0 0 1 1.869-1.806c.789-.439 1.664-.658 2.625-.658.7 0 1.386.14 2.058.42.672.28 1.246.667 1.722 1.162l-1.092 1.372zm6.902-2.954c.97 0 1.855.22 2.653.658a4.9 4.9 0 0 1 1.883 1.806c.457.765.686 1.615.686 2.548a4.91 4.91 0 0 1-.686 2.555 4.987 4.987 0 0 1-1.883 1.827c-.798.448-1.682.672-2.653.672-.97 0-1.855-.224-2.653-.672a4.987 4.987 0 0 1-1.883-1.827 4.91 4.91 0 0 1-.686-2.555c0-.933.229-1.783.686-2.548a4.9 4.9 0 0 1 1.883-1.806c.798-.439 1.682-.658 2.653-.658zm.028 1.68c-.597 0-1.153.147-1.666.441-.513.294-.92.695-1.218 1.204a3.27 3.27 0 0 0-.448 1.687c0 .616.152 1.18.455 1.694.303.513.71.92 1.218 1.218a3.219 3.219 0 0 0 1.659.448c.588 0 1.134-.15 1.638-.448a3.349 3.349 0 0 0 1.638-2.912 3.31 3.31 0 0 0-1.638-2.891 3.195 3.195 0 0 0-1.638-.441zm15.498-1.554v9.8h-1.778l-5.04-6.748V187h-1.834v-9.8h1.778l5.054 6.762V177.2h1.82zm9.31 0v1.666h-3.052V187h-1.89v-8.134h-3.052V177.2h7.994zm8.512 0v1.638h-5.306v2.422h4.76v1.638h-4.76v2.464h5.474V187h-7.35v-9.8h7.182zm10.724 0v9.8h-1.778l-5.04-6.748V187h-1.834v-9.8h1.778l5.054 6.762V177.2h1.82zm9.31 0v1.666h-3.052V187h-1.89v-8.134h-3.052V177.2h7.994z"/><g fill-rule="nonzero"><path fill="#D9D9DC" d="M161.682 102.133c-.137 1.14-.273 2.28-.432 3.397-.182 1.209-.364 2.417-.637 3.58-.432 1.756-.841 3.534-1.5 5.244-.569 1.482-1.024 3.01-1.615 4.446a53.878 53.878 0 0 1-2.114 4.492c-.546 1.026-1.228 1.983-1.887 2.94a73.165 73.165 0 0 1-2.479 3.444c-.59.775-1.273 1.482-1.91 2.234-.818.935-1.637 1.847-2.455 2.782-.273.296-.568.57-.819.866l-2.5 2.782a9.479 9.479 0 0 1-.956.957c-.522.479-1.068.912-1.614 1.368-.455.365-.887.73-1.364 1.072-.75.501-1.5.98-2.274 1.459-.773.479-1.523.98-2.319 1.39-1.318.662-2.614 1.369-3.979 1.962a98.072 98.072 0 0 0-4.729 2.188c-1.296.639-5.57 1.733-6.184 1.916-.932.25-1.842.501-2.774.752-.09.023-.182 0-.273.023-.75.114-1.5.25-2.228.365-.205.045-.432.114-.637.136-.204.023-5.07.958-7.002 1.05-.16 0-8.254-.115-9.368-.229-1.41-.137-2.82-.273-4.206-.456-.819-.091-1.614-.205-2.41-.433-1.046-.274-2.046-.661-3.07-1.003l-1.16-.41c-.454-.16-.954-.251-1.363-.48-.705-.41-1.57-.501-2.228-1.003-.069-.045-.182-.022-.273-.045-.114-.046-.25-.069-.364-.137-.478-.274-.955-.57-1.432-.866-.91-.548-1.797-1.095-2.706-1.62-.614-.364-1.25-.706-1.864-1.07-.25-.138-.5-.297-.75-.434-.274-.16-.615-.274-.842-.479a6.934 6.934 0 0 0-1.5-1.071c-.205-.114-.41-.228-.614-.365-.455-.32-.887-.661-1.342-1.003-.227-.183-.432-.365-.66-.548-.5-.364-1.022-.706-1.523-1.094-.318-.25-.614-.57-.932-.82-.636-.502-3.615-3.124-3.979-3.512-.75-.798-1.432-1.642-2.137-2.485l-.682-.821c-.341-.433-.682-.844-1.023-1.277-.364-.456-.75-.935-1.114-1.39-.364-.48-.66-1.004-1.069-1.414-.523-.547-.91-1.163-1.319-1.779-.432-.66-.84-1.345-1.25-2.029-.387-.661-.796-1.3-1.114-1.983-.364-.753-.66-1.55-.955-2.326-.273-.707-.591-1.414-.819-2.143-.25-.867-.409-1.779-.636-2.645-.364-1.345-.773-2.69-1.137-4.036a83.824 83.824 0 0 1-1.478-6.703c-.09-.501-.182-1.003-.25-1.505-.091-.798-.16-1.596-.25-2.37-.023-.206-.023-6.34.045-7.183.091-1.163.205-2.303.319-3.465.09-1.026.136-2.052.227-3.078.091-1.163.41-2.28.75-3.398.228-.706.455-1.436.614-2.166.205-.912.614-1.778.978-2.644.159-.388.41-.753.546-1.14.613-1.665 1.136-3.375 1.796-5.016.477-1.232 1.091-2.417 1.705-3.58.432-.82.978-1.573 1.478-2.348.682-1.05 1.341-2.075 2.023-3.101.114-.183.25-.342.364-.525.296-.478.569-.98.864-1.436.387-.547.773-1.094 1.205-1.596.41-.479.728-1.026 1.273-1.39.228-.138.387-.388.546-.594.523-.66.978-1.368 1.523-1.983 1.092-1.209 2.274-2.371 3.57-3.352a259.12 259.12 0 0 1 6.23-4.605c.818-.57 1.705-1.026 2.569-1.55.796-.48 1.546-1.027 2.32-1.506a53.152 53.152 0 0 1 2.728-1.573c1.182-.638 2.432-1.094 3.751-1.459 1.478-.388 2.91-.844 4.388-1.254 1.182-.32 2.342-.616 3.524-.912.796-.182 1.592-.388 2.388-.502 1.227-.16 5.343-.684 8.48-.592 1.114.022 3.547.319 4.661.364.455.023.91.092 1.342.16.91.16 1.819.365 2.728.456 1.637.182 3.206.616 4.775 1.072 1.341.387 2.66.843 3.979 1.3 1.296.432 2.569.911 3.842 1.344.91.32 1.796.707 2.615 1.186.796.456 1.637.866 2.455 1.3.773.41 1.524.843 2.32 1.208 1.09.502 2.182 1.003 3.16 1.71.705.502 1.478.958 2.137 1.505 1.114.912 2.183 1.87 3.251 2.804.546.479 1.114.935 1.683 1.391.773.638 1.569 1.254 2.273 1.938.933.89 1.82 1.824 2.683 2.782.523.57 1.023 1.185 1.478 1.8.682.913 1.342 1.848 2.024 2.782.773 1.072 1.569 2.144 2.342 3.215 1 1.368 1.66 2.896 2.25 4.469.41 1.14.819 2.303 1.228 3.443.273.752.5 1.527.773 2.28.387 1.163.614 2.348.819 3.557.295 1.71.66 3.42.91 5.152.25 1.733.545 3.443.568 5.199 0 .296.068.615.113.912.046 0 .341 4.583-.113 9.758zM72.85 110.73h-.023l.136 4.81v1.14c0 .548.137.685.66.662.5-.023 1-.069 1.5-.091.887-.023 1.774-.023 2.66-.023.796 0 1.592.023 2.388.023.704 0 1.387 0 2.091.022 1.387.046 2.774.137 4.184.16 1.341.023 2.683.023 4.047.023h2.069c.318 0 .637-.091.978-.091.545 0 1.068.068 1.614.09.887.024 1.75-.045 2.637 0 .773.046 1.546 0 2.32-.022.636-.023 1.25-.046 1.887-.091a87.674 87.674 0 0 0 2.432-.228c.387-.046.75-.183 1.114-.205.75-.046.819-.388.66-1.095-.023-.091-.091-.16-.137-.25-.25-.434-.5-.867-.818-1.255-.591-.82-1.16-1.664-1.774-2.462-1-1.368-1.932-2.759-2.91-4.15-.91-1.276-1.864-2.553-2.774-3.83-.523-.752-.955-1.528-1.25-2.394-.25-.73-.091-1.231.432-1.687l.34-.274c.592-.41 1.16-.798 1.752-1.208.545-.388 1.136-.73 1.546-1.277.273-.365.545-.73.773-1.117.25-.388.5-.753.682-1.163.455-1.117.841-2.28 1-3.488.046-.388.16-.776.114-1.14-.114-.89-.046-1.779-.273-2.645-.386-1.482-.705-2.987-1.5-4.31-.728-1.185-1.41-2.393-2.456-3.305a17.943 17.943 0 0 0-2.342-1.756c-.978-.616-2.046-.98-3.115-1.322-.523-.183-1.068-.32-1.591-.548-.75-.319-1.501-.615-2.342-.66-.932-.07-1.842-.183-2.751-.229-1.319-.045-2.66-.091-3.98-.068-1.25.023-2.5.137-3.75.205-.728.046-1.479.068-2.206.091-1.296.069-2.615.16-3.91.228-.501.023-.478.023-.501.547-.023 1.209-.068 2.44-.114 3.648-.045 1.163-.09 2.326-.113 3.489-.023.935 0 1.87 0 2.781 0 .297.09.616.09.912 0 .502-.09 1.004-.068 1.505 0 .753.069 1.482.091 2.235l.137 7.204v.16l.204 3.374c.046 1.14.091 2.28.114 3.443.046 1.573.068 3.124.114 4.697-.068.32-.068.638-.068.935zm41.903-35.5h-2.888c-.636 0-.705.069-.682.684.023 1.345.068 2.69.091 4.036.023.957 0 1.915 0 2.873 0 1.345 0 2.69.023 4.058 0 .296.068.57.068.866-.045 1.437-.136 2.873-.16 4.31-.022.798.07 1.573.092 2.37.045 1.414.09 2.828.113 4.264.046 1.87.069 3.74.114 5.61.046 2.416.068 4.833.114 7.25.023 1.413 0 2.804.023 4.218 0 .433.068.501.454.524 1.092.068 2.206.16 3.297.205 1.728.091 3.479.16 5.23.205.75.023 1.523 0 2.273.023.66 0 1.342 0 2 .023 1.297.023 2.593.182 3.866.046 1.523-.137 3.047-.48 4.547-.821 1.228-.274 2.456-.684 3.684-.98.75-.183 1.41-.457 1.955-1.004.432-.433.864-.843 1.228-1.322.5-.661 1.023-1.3 1.318-2.052.478-1.209.91-2.44 1.092-3.762.136-1.095.295-2.166.204-3.306-.159-1.801-.613-3.466-1.546-4.993-.727-1.186-1.614-2.235-2.683-3.101-.432-.342-.863-.639-1.318-.958-.387-.273-.41-.273-.273-.752.045-.114.09-.251.16-.342.386-.616.772-1.254 1.204-1.87.75-1.094 1.182-2.303 1.25-3.602a11.17 11.17 0 0 0-.386-3.671c-.477-1.596-1.205-3.078-2.228-4.4-.478-.616-.955-1.232-1.546-1.756-.478-.433-1.091-.661-1.66-.935-2.228-1.071-4.593-1.71-7.07-1.824l-3.593-.137c-.205 0-.387-.045-.591-.045-.683-.046-1.365-.114-2.07-.114-1 .023-1.978.137-2.978.16-.955.045-1.842.022-2.728.022z"/><path fill="#C1C1C6" d="M126.294 132.568l-.045-.34a1.022 1.022 0 0 0-.202-.477l-.045-.068a15.467 15.467 0 0 0-.92-1.202 26.722 26.722 0 0 0-1.235-1.43l-.135-.135c-.336-.363-.696-.726-1.145-.953-.269-.136-.494-.34-.718-.544-.202-.182-.404-.386-.651-.522l-.314-.182c-.472-.272-.943-.567-1.46-.816-.47-.227-.965-.363-1.459-.5-.628-.158-1.234-.317-1.863-.408-.696-.113-1.19-.25-1.639-.476-.628-.318-1.055-.749-1.324-1.27-.023-.046-.023-.137-.023-.227 0-.114 0-.25-.045-.363-.09-.295-.044-.545.158-.749.426-.476 1.1-.68 1.549-.794.606-.136 1.234-.181 1.863-.227.135 0 .27-.023.426-.023.202-.022.427-.022.606-.022H118.594c.18 0 .36.022.539.022.18.023.381.046.583.046.27 0 .517-.046.741-.114a1.85 1.85 0 0 0 .651-.363c.472-.385.808-.884 1.055-1.61.382-1.066.292-2.042-.27-2.927-.022-.022-.022-.068-.044-.09-.045-.091-.067-.182-.157-.273-.247-.25-.516-.476-.741-.703l-.224-.204c-.045-.045-.113-.09-.158-.159a2.696 2.696 0 0 0-.471-.385 9.602 9.602 0 0 0-1.28-.636c-.157-.068-.314-.136-.471-.226-.988-.477-1.976-.59-2.829-.658-.157 0-.336-.023-.494-.023-.718 0-1.504.113-2.446.318-1.056.25-2.447.635-3.66 1.451l-.067.046c-.135.09-.247.181-.382.227-.56.227-.987.612-1.391.975l-.09.09c-.427.387-.808.795-1.145 1.135-.516.545-1.01 1.09-1.504 1.633l-.09.091c-.09.091-.09.204-.09.272v.023l-.045.25.247.045.023-.136v.136c.022 0 .067.023.134.023.023 0 .068 0 .09-.023.068-.023.112-.045.18-.068a.462.462 0 0 1 .134-.045c.202-.046.405-.068.607-.114.269-.045.56-.113.83-.159.337-.068.696-.158 1.033-.25l.224-.067c.472-.114.943-.25 1.392-.386.247-.068.516-.136.763-.227.382-.113.831-.25 1.258-.363.56-.158 1.144-.272 1.706-.408.718-.159 1.459-.318 1.975-.408.023.022.023.045.023.158v.114c-.157.068-.315.113-.472.181l-.628.227c-.584.227-1.145.431-1.729.635-.157.046-.314.114-.471.16-.157.045-.337.09-.494.158l-.539.204c-.247.09-.494.204-.74.272a22.29 22.29 0 0 1-1.168.318c-.157.045-.314.068-.472.113l-.583.16c-.606.158-1.213.317-1.841.453-.247.068-.494.09-.74.136l-.203.023h-.18l-.471-.023.27.408c0 .023.022.023.022.046.045.068.09.159.18.227.134.113.269.204.404.294.157.114.314.227.471.363.337.273.651.545.965.817l.023.023c.224.204.449.385.673.59.584.476 1.168.975 1.729 1.451.718.59 1.437 1.18 2.155 1.747.157.114.314.25.471.386l.629.499c.27.227.628.522.943.862.449.454.875.907 1.257 1.361.157.182.314.386.471.567-.426-.045-.785-.25-1.145-.453l-.404-.25a18.332 18.332 0 0 0-.898-.522c-.157-.09-.336-.181-.494-.272-.404-.204-.763-.386-1.077-.68a5.096 5.096 0 0 0-.696-.568 2.454 2.454 0 0 1-.382-.295 52.455 52.455 0 0 1-1.593-1.315c-.18-.16-.382-.318-.562-.477-.292-.25-.606-.521-.92-.771-.494-.408-1.033-.817-1.504-1.18l-.472-.363a.356.356 0 0 0-.18-.068h-.022l-.292-.113-.044.318.134.022h-.134c0 .046-.023.114-.023.204.045.34.112.658.18.999.045.181.067.385.112.59.09.476.18.975.292 1.474.157.703.359 1.406.539 2.064l.022.091c.067.272.135.522.202.794l.18.703c.134.522.27 1.044.404 1.543l.27.953c.089.363.201.703.291 1.066.067.204.112.43.157.658.067.295.157.612.247.93.18.635.382 1.27.584 1.905l.539 1.724c.157.545.336 1.067.493 1.611.202.635.382 1.248.562 1.883l.09.272c.044.136.09.295.134.454l.023.045c.067.25.134.5.224.749.09.272.18.567.27.84.134.407.269.816.381 1.224a8.7 8.7 0 0 1 .18.817c0 .045.022.09.022.113-.135-.068-.314-.181-.337-.25a6.778 6.778 0 0 0-.314-.544c-.157-.295-.337-.59-.494-.907a79.015 79.015 0 0 1-.92-1.996l-.112-.273c-.068-.181-.158-.34-.247-.521a45.04 45.04 0 0 1-.786-1.838c-.18-.454-.314-.93-.472-1.384v-.022c-.09-.25-.157-.522-.246-.772-.09-.295-.203-.567-.292-.862v-.022c-.135-.363-.27-.794-.404-1.203-.068-.181-.113-.408-.158-.59-.044-.181-.09-.385-.157-.567a14.8 14.8 0 0 0-.359-1.066c-.067-.159-.112-.34-.18-.499l-.044-.113c-.045-.137-.09-.295-.135-.454-.067-.272-.135-.522-.202-.794l-.023-.114c-.067-.272-.134-.544-.202-.794-.291-1.088-.606-2.177-.898-3.289l-.067-.204-.067-.204c-.135-.545-.247-1.09-.36-1.61l-.179-.84c-.27-1.225-.337-1.634-.36-1.679l-.134-.544-.314.476c-.045.045-.09.204-.606 1.543l-.045.09c-.112.273-.202.522-.27.726l-.224.59c-.427 1.112-.853 2.269-1.325 3.38-.314.772-.695 1.543-1.055 2.291l-.269.568-.606 1.225-.023.022c-.112.204-.202.409-.314.613l-.561 1.134c-.337.68-.674 1.338-1.033 2.019l-.202.34a4.474 4.474 0 0 0-.292.567c-.157.363-.381.68-.74 1.09v-.023c-.023-.046-.023-.091-.045-.137-.023-.09-.068-.181-.068-.226l.068-.477c.067-.522.134-1.089.291-1.565.247-.749.584-1.497.92-2.223.068-.159.136-.318.225-.477.292-.68.629-1.338.943-1.996.112-.227.225-.476.337-.703.157-.34.314-.68.494-1.02l.022-.046c.337-.68.674-1.407 1.01-2.11.315-.68.607-1.384.898-2.042.247-.567.494-1.134.741-1.678.315-.681.561-1.248.876-1.793.134-.25.314-.499.494-.748.112-.136.202-.295.314-.431a1.62 1.62 0 0 0 .18-.408c.022-.069.022-.16-.068-.273-.045-.045-.157-.181-.292-.181h-.045l-.336.068c-.202.068-.427.136-.651.204-.292.09-.562.159-.853.227h-.023c-.202.045-.404.113-.583.159-.158.045-.315.09-.494.136-.202.068-.427.113-.629.181-.09.023-.18.046-.292.068-.134.023-.27.046-.404.091-.202.068-.381.136-.584.204-.18.068-.336.114-.516.182-1.459.453-3.008.93-4.512 1.36a1.734 1.734 0 0 1-.494.069c-.18 0-.382-.023-.561-.046h-.068v-.022c-.022-.09.113-.409.202-.431l.158-.068c.269-.136.56-.25.83-.34.943-.318 1.864-.59 2.739-.863 1.235-.363 2.56-.748 3.704-1.066l.45-.136c.426-.113.92-.272 1.436-.386.292-.068.583-.113.875-.181h.045l.404-.068c.337-.068.494-.295.45-.613-.068-.544-.63-1.088-1.213-1.225-.224-.113-1.975-.975-2.784-1.134a7.422 7.422 0 0 0-1.459-.136c-.561 0-1.167.045-1.84.159-1.078.159-1.976.68-2.807 1.18-.539.317-1.032.725-1.549 1.247-.359.363-.696.771-1.032 1.157l-.36.431c-.067.09-.157.182-.224.272l-.023.023c-.269.295-.538.613-.763.953a22.665 22.665 0 0 0-1.122 1.815c-.337.657-.674 1.293-.876 1.95-.224.726-.336 1.498-.471 2.246l-.023.205c-.134.907.09 1.678.719 2.313.404.409.785.613 1.212.613.27 0 .584-.09.943-.25.673-.317 1.077-.862 1.481-1.383.158-.205.315-.409.494-.59.247-.272.472-.545.696-.84l.674-.816c.134-.159.314-.295.494-.431.18-.159.381-.318.56-.5.248-.272.585-.408.989-.408.56 0 1.1.273 1.324.704.135.25.292.453.472.635.336.34.359.953.18 1.293-.338.635-.72 1.338-1.168 1.973-.674.953-1.235 1.702-1.819 2.337l-.65.726c-.697.771-1.437 1.565-2.021 2.473-.606.907-1.212 1.928-1.527 3.107-.314 1.203-.269 2.405-.157 3.72.023.273.09.545.202.84.113.272.27.522.427.749.067.09.112.181.157.272.225.363.449.771.965.93.113.046.225.068.315.09.112.024.202.046.291.092.202.068.427.113.651.113.36 0 .696-.09 1.033-.181.135-.046.27-.068.404-.091.157-.046.314-.114.45-.204.044-.023.111-.068.156-.091.135-.068.247-.114.382-.182l.045-.022c.696-.34 1.414-.68 1.998-1.27.112-.137.247-.25.404-.386.292-.25.584-.522.786-.862.471-.794.853-1.634 1.302-2.632.202-.499.404-.998.583-1.497.157-.408.315-.84.472-1.248.224-.521.471-1.066.898-1.474.404-.363.763-.68 1.1-.953.022-.023.09-.045.157-.045h.022c.719.25 1.168.794 1.415 1.18.471.748.583 1.655.381 2.88a30.103 30.103 0 0 1-.404 1.951v.046c-.067.317-.135.635-.202.975-.022.09-.045.159-.045.25a6.18 6.18 0 0 0-.157.93c-.045.43-.067.862-.09 1.27-.022.454-.045.907-.09 1.361-.18 2.042.472 3.789 1.954 5.195 1.167 1.112 2.581 2.382 4.287 3.267.741.385 1.55.68 2.313.998l.09.045c.134.046.291.068.426.068a.762.762 0 0 0 .404-.09c.426-.205.83-.409 1.122-.75.786-.861 1.437-1.655 1.976-2.426a24.825 24.825 0 0 0 1.639-2.632c.404-.748.853-1.656.898-2.7a6.668 6.668 0 0 0-.584-3.198c-.404-.907-.943-1.77-1.46-2.586l-.067-.114c-.269-.43-.538-.839-.83-1.247a20.72 20.72 0 0 1-.965-1.475c-.652-1.111-.966-2.246-.898-3.38.022-.386.224-.68.493-.748.382-.091.764-.137 1.123-.137.18 0 .382.068.539.16 1.324.884 2.694 1.791 4.153 2.79.92.635 1.706.952 2.559 1.066l.135.022c.538.068 1.1.16 1.66.16.338 0 .652-.024.944-.092h.045c.112-.022.247-.045.359-.136.09-.068.18-.136.27-.227.403-.317.807-.635 1.077-1.156.27-.545.56-1.203.538-1.951a45.887 45.887 0 0 0-.18-1.906z"/><path fill="#6F6C75" d="M84.247 127.895c-.09-.476-.09-.93.045-1.361.247-.862.494-1.77.853-2.586.426-.93.92-1.838 1.504-2.677.516-.749 1.145-1.43 1.773-2.087.315-.34.764-.567 1.145-.885.315-.272.562-.612.898-.885 1.01-.839 2.155-1.474 3.323-2.041.314-.16.718-.136 1.1-.182.494-.045.965-.136 1.459-.113.74.045 1.504.068 2.2.363.471.204.965.34 1.392.567.471.25.898.567 1.324.84.068.045.157.045.247.067a.424.424 0 0 0 .045-.159v-2.087c0-.43-.045-.862 0-1.27.045-.567.135-1.134.202-1.701.045-.386.09-.772.18-1.157.18-.726.359-1.43.583-2.155.09-.318.45-.205.674-.273.045-.022.247.273.27.431.134 1.044.112 2.11.044 3.154a29.127 29.127 0 0 0-.022 3.13c.022.84.112 1.679.18 2.518 0 .046.022.114.022.16 1.122-1.453 2.559-2.519 3.996-3.608 1.055-.794 2.29-1.225 3.524-1.679.674-.25 1.347-.567 2.043-.748 1.796-.431 3.57-.454 5.253.476 1.212.658 2.447 1.293 3.48 2.2.875.772 1.549 1.725 1.908 2.814.471 1.383.202 2.722-.943 3.765a36.42 36.42 0 0 1-1.01.908c-.112.09-.247.136-.36.204-.448.159-.92.34-1.391.476-.18.046-.36-.022-.561-.022-.405-.023-.786-.046-1.19-.046-.337 0-.674-.045-1.01-.022-.562.045-1.145.136-1.707.226-.291.046-.56.16-.83.25-.225.068-.202.181-.045.318.539.453 1.19.68 1.886.748.718.068 1.414.159 2.087.409.606.226 1.235.43 1.841.703.517.25 1.01.567 1.482.907.65.477 1.302.976 1.908 1.52.471.431 1.055.749 1.414 1.316.606.885 1.302 1.701 1.639 2.767.202.658.516 1.316.606 2.02.135.884.247 1.746-.022 2.63-.292 1.044-.92 1.77-1.886 2.247-.224.113-.427.25-.651.317a3.222 3.222 0 0 1-.92.227c-.696.046-1.392.023-2.088.046a5.854 5.854 0 0 1-2.761-.613c-.472-.227-.988-.408-1.415-.726-.292-.204-.696-.363-.853-.771-.022-.046-.157-.046-.224-.114-.292-.226-.584-.453-.876-.703-.539-.476-1.122-.885-1.863-1.043-.225-.046-.314 0-.27.226.113.522.248 1.021.36 1.52.202.84.606 1.588 1.1 2.314.516.726 1.055 1.452 1.571 2.178.314.431.629.84.898 1.293.404.726.741 1.475.876 2.291.112.704.202 1.407.18 2.11-.046.817-.18 1.633-.517 2.382-.561 1.225-1.145 2.405-2.065 3.425-.584.636-1.1 1.339-1.684 1.974-.74.794-1.571 1.497-2.56 1.951-.673.295-1.458.408-2.2.045-2.244-1.111-4.422-2.314-6.285-4.015-.382-.34-.651-.817-1.055-1.157-.292-.25-.36-.544-.516-.84-.113-.18-.562-.68-.629-.77-.224-.409-.718-2.156-.763-4.878-.023-.544.381-3.493.539-4.015.134-.454.336-.885.449-1.339.09-.34.134-.68.18-1.02.066-.568.156-1.135.156-1.702 0-.204-.157-.408-.27-.612 0-.023-.156 0-.179.045a7.823 7.823 0 0 0-1.032 1.906c-.315.93-.629 1.86-1.033 2.745a19.748 19.748 0 0 1-1.414 2.631c-.292.476-.764.862-1.213 1.225-.516.431-1.055.862-1.638 1.202-.83.477-1.662.976-2.56 1.248-1.593.476-2.963-.113-4.153-1.157a4.74 4.74 0 0 1-1.19-1.565c-.269-.522-.516-1.021-.65-1.565-.202-.794-.337-1.588-.135-2.405.112-.454.112-.93.247-1.384.135-.408.36-.794.539-1.18.045-.113.09-.249.134-.362.337-.772.584-1.543 1.055-2.269.472-.749 1.033-1.452 1.617-2.132.426-.5.875-.976 1.324-1.452.561-.567 1.19-1.112 1.751-1.679.404-.431.741-.93 1.123-1.406a7.49 7.49 0 0 0 .494-.681c.202-.295.157-.431-.113-.658-.673-.522-1.145-.43-1.66.295-.562.771-1.078 1.565-1.662 2.314-.696.885-1.482 1.724-2.514 2.246-.427.227-.898.159-1.325.136-.247-.023-.471-.204-.718-.25a1.297 1.297 0 0 1-.472-.227c-.538-.408-.92-.93-1.28-1.497-.134-.136-.695-2.246-.74-2.495zm16.365-9.777a1.508 1.508 0 0 0-.247-.16c-.067-.022-.134-.022-.202-.045-.673-.521-1.504-.748-2.312-.907-1.055-.204-2.155-.136-3.21.023-.988.158-1.863.635-2.717 1.157a7.818 7.818 0 0 0-1.504 1.202c-.493.476-.92 1.043-1.369 1.588-.337.408-.696.794-.988 1.225-.404.567-.763 1.18-1.1 1.792-.336.613-.65 1.248-.853 1.906-.224.794-.359 1.61-.494 2.404-.134.794.068 1.497.651 2.087.584.613 1.078.68 1.841.295.853-.43 1.28-1.247 1.886-1.905.494-.522.898-1.112 1.392-1.634.314-.34.74-.59 1.055-.93.763-.84 2.245-.544 2.716.34.112.205.247.409.427.568.426.43.449 1.18.224 1.61-.359.68-.74 1.361-1.19 1.997a26.271 26.271 0 0 1-1.818 2.359c-.92 1.02-1.886 1.996-2.649 3.153-.629.953-1.19 1.928-1.504 3.04-.314 1.202-.247 2.427-.157 3.63.022.249.09.521.202.748.09.25.247.476.404.703.27.409.471.908.988 1.112.202.068.426.113.628.181.674.25 1.325-.045 1.953-.181.202-.045.36-.182.54-.272.83-.409 1.683-.749 2.334-1.43.381-.408.875-.748 1.145-1.202.494-.816.898-1.701 1.28-2.586.38-.885.673-1.815 1.054-2.722.225-.567.494-1.134.966-1.565.359-.34.74-.658 1.122-.976a.487.487 0 0 1 .427-.068c.673.25 1.19.726 1.549 1.293.583.93.606 1.996.426 3.063-.157.998-.404 1.973-.606 2.971-.09.386-.18.772-.202 1.157-.067.885-.09 1.747-.18 2.632-.18 1.973.45 3.63 1.864 4.99 1.28 1.226 2.626 2.405 4.22 3.222.763.386 1.572.703 2.38 1.02.18.069.471.091.65 0 .382-.18.786-.385 1.056-.68.696-.771 1.37-1.565 1.953-2.404a24.13 24.13 0 0 0 1.639-2.61c.449-.816.808-1.655.875-2.608a6.215 6.215 0 0 0-.561-3.063c-.427-.93-.965-1.814-1.527-2.676-.583-.93-1.234-1.793-1.796-2.745-.628-1.09-1.01-2.246-.942-3.54.022-.476.269-.884.696-.997.381-.091.785-.136 1.167-.16.224 0 .494.069.673.205 1.392.907 2.784 1.837 4.153 2.79.741.522 1.527.908 2.447 1.044.876.113 1.751.25 2.65.09.09-.022.201-.022.269-.09.471-.386.987-.703 1.28-1.293.291-.59.538-1.18.493-1.838-.022-.726-.112-1.452-.202-2.178a.94.94 0 0 0-.157-.34c-.314-.43-.629-.84-.965-1.248-.404-.476-.786-.952-1.235-1.406-.36-.386-.74-.794-1.212-1.02-.561-.273-.876-.772-1.392-1.09-.584-.34-1.145-.703-1.751-.998-.45-.204-.943-.34-1.414-.476-.607-.159-1.213-.318-1.841-.409-.606-.09-1.168-.226-1.706-.499-.629-.317-1.123-.77-1.437-1.383-.09-.182-.023-.431-.067-.636-.113-.385-.045-.726.202-.998.449-.499 1.077-.726 1.683-.862.741-.181 1.527-.204 2.313-.272.471-.045.942 0 1.414-.023.628-.022 1.28.182 1.908-.022a2.1 2.1 0 0 0 .584-.318c.494-.386.763-.907.987-1.497.337-.953.292-1.838-.247-2.7-.067-.113-.09-.25-.18-.317-.313-.295-.628-.59-.964-.885-.18-.182-.36-.386-.584-.5-.561-.317-1.145-.566-1.729-.861-.875-.431-1.796-.567-2.738-.635-.966-.068-1.931.09-2.874.295-1.257.294-2.492.68-3.592 1.406-.157.113-.314.227-.494.295-.56.227-.987.635-1.414 1.02-.404.364-.763.75-1.145 1.135a58.483 58.483 0 0 0-1.594 1.747c-.022.045-.022.113-.022.159.045 0 .09.022.135.022.112-.022.224-.09.336-.113l1.437-.272c.427-.091.83-.205 1.257-.318.472-.113.92-.25 1.392-.386.673-.181 1.347-.385 2.02-.567.562-.159 1.145-.272 1.707-.408.673-.136 1.324-.272 1.998-.408.044 0 .134.022.18.045.201.159.089.386.134.567 0 .023 0 .09-.023.09-.202.092-.404.16-.628.25l-2.357.885c-.315.113-.651.182-.988.295-.427.159-.853.363-1.302.5-.539.158-1.1.294-1.661.43l-2.425.613c-.314.068-.65.113-.965.181-.068.023-.157 0-.225 0 .045.068.068.159.135.227.292.227.584.43.876.658l1.683 1.429c.584.476 1.145.975 1.729 1.452.718.59 1.437 1.18 2.155 1.747.36.294.74.59 1.122.884.337.272.651.567.966.862.449.431.875.885 1.28 1.361.291.318.538.681.807 1.021.023.046.023.114.023.16-.045-.024-.112-.024-.157-.046-.09-.046-.157-.136-.225-.136-.539 0-.988-.25-1.437-.5-.426-.249-.875-.521-1.302-.77-.538-.318-1.144-.523-1.616-.999-.314-.318-.718-.544-1.055-.84-.539-.43-1.055-.884-1.594-1.315-.494-.408-.965-.84-1.482-1.248-.65-.521-1.302-1.02-1.953-1.52-.044-.022-.09-.022-.134-.045 0 .045-.023.09-.023.136.045.34.113.658.18.998.135.68.224 1.361.404 2.042.224.998.516 1.974.763 2.949.202.749.382 1.497.584 2.246.18.68.382 1.338.561 2.019.135.522.247 1.066.404 1.565.247.84.517 1.679.763 2.518.292.908.562 1.815.854 2.722.224.726.426 1.452.65 2.155.113.409.225.84.36 1.248.224.703.449 1.384.673 2.087.112.363.157.771.247 1.134.09.431.157.862.247 1.27l-.022.023c-.113-.113-.247-.226-.36-.34-.044-.045-.09-.09-.09-.136 0-.159.135-.408-.224-.295 0 0-.022-.045-.045-.068a7.25 7.25 0 0 0-.359-.726c-.27-.499-.561-.953-.808-1.452-.36-.748-.696-1.52-1.055-2.29-.36-.795-.719-1.566-1.033-2.383-.27-.726-.471-1.452-.718-2.2-.225-.703-.494-1.384-.719-2.087-.112-.386-.18-.794-.291-1.18-.158-.522-.337-1.043-.517-1.565a5.515 5.515 0 0 1-.18-.567c-.156-.567-.291-1.135-.448-1.702-.292-1.089-.606-2.177-.898-3.29-.045-.135-.113-.271-.135-.43-.135-.545-.247-1.089-.36-1.633-.156-.772-.313-1.52-.47-2.292-.023-.068-.045-.136-.045-.204-.045.068-.09.114-.135.182l-.741 2.11c-.494 1.315-.988 2.654-1.549 3.97-.404.975-.875 1.905-1.347 2.858-.292.635-.628 1.247-.943 1.86-.539 1.043-1.055 2.11-1.594 3.153-.157.295-.359.567-.471.885-.247.567-.651 1.02-1.055 1.452a3.049 3.049 0 0 1-.157-.409c-.045-.158-.135-.34-.113-.476.09-.703.135-1.43.36-2.11.314-.93.74-1.837 1.145-2.722.404-.907.853-1.815 1.28-2.722.493-1.066 1.01-2.11 1.503-3.176.561-1.248 1.078-2.496 1.639-3.743.27-.613.561-1.225.875-1.815.225-.431.54-.794.831-1.202a.9.9 0 0 0 .135-.34c0-.046-.023-.091-.045-.137h-.067c-.337.114-.651.227-.988.318-.494.136-.988.272-1.46.386-.381.113-.74.226-1.122.317-.224.068-.471.09-.696.136-.359.114-.74.25-1.1.363-1.504.454-3.008.93-4.512 1.361-.427.136-.853.068-1.28.023-.067 0-.134-.113-.157-.204-.067-.204.157-.658.337-.749a9.642 9.642 0 0 1 1.01-.43c.898-.296 1.819-.59 2.739-.863 1.392-.408 2.784-.794 4.153-1.202.471-.136.965-.272 1.437-.386.449-.113.875-.181 1.324-.272.18-.045.27-.113.247-.318.09-.363-.426-.862-.898-.952z"/></g></g></svg>
