<svg height="60" width="100" xmlns="http://www.w3.org/2000/svg"><g fill="none" fill-rule="evenodd"><rect fill="#fff" height="60" rx="4" width="100"/><g fill="#f47216" fill-rule="nonzero"><path d="m74.23 23.242c.263.212.489.452.678.726.484.706.668 1.544.559 2.505h2.473l-3.729 10.38h3.727l3.731-10.38h4.788l1.161-3.23h-13.388z"/><path d="m70.427 27.583c-.399 1.088-1.115 1.76-2.478 1.76h-.711l1.206-3.291h.686c1.254 0 1.722.372 1.297 1.531m3.616-3.006c-.613-.893-1.86-1.332-3.814-1.335h-4.523l-4.893 13.608h4.156l1.779-4.79c.087.197 1.136 4.79 1.136 4.79h4.369s-.795-3.375-1.38-4.738c-.15-.35-.306-.743-.515-1.072 1.234-.464 3.021-1.461 3.762-3.48.455-1.243.428-2.246-.077-2.983m-41.76-1.342h-7.705c-1.215 0-2.395 0-3.452.543-1.057.544-1.99 1.63-2.71 3.806-.155.467-.237.87-.248 1.22-.01.35.049.648.18.907.162.316.424.614.752.864.328.251.72.455 1.143.586l.508.146c.269.079.583.172.781.233.116.036.245.083.36.154.117.069.22.163.287.292.043.087.066.18.068.281a.935.935 0 0 1 -.053.327c-.098.295-.248.485-.533.602-.284.116-.703.153-1.338.158h-7.929l-1.253 3.487h8.486c.8 0 2.26 0 3.662-.604 1.404-.603 2.75-1.81 3.319-4.224.214-.907.148-1.646-.203-2.227-.352-.58-.989-1.001-1.916-1.271l-.452-.132c-.243-.07-.524-.151-.668-.194a.897.897 0 0 1 -.527-.384.767.767 0 0 1 -.08-.611.89.89 0 0 1 .441-.536c.224-.124.517-.193.859-.193h4.933c.035-.051.067-.106.101-.157.901-1.291 1.992-2.336 3.187-3.073"/><path d="m35.902 29.975c-1.152 3.192-1.988 3.995-3.246 3.995h-.002c-1.226-.001-1.655-.786-.508-3.963.856-2.371 1.965-3.888 3.307-3.888 1.277.001 1.57.75.449 3.856m3.951-5.466c-.671-.973-1.82-1.467-3.42-1.468a6.95 6.95 0 0 0 -3.012.698c-1.362.652-2.595 1.74-3.603 3.184a13.931 13.931 0 0 0 -1.654 3.24c-.826 2.293-.817 4.155.029 5.381.48.694 1.476 1.521 3.502 1.524h.008c3.691 0 6.447-2.45 8.192-7.283.461-1.28 1.07-3.665-.042-5.276m14.752-1.274h-7.853c-2.195 0-3.83 1.124-4.601 3.23l-3.73 10.377h4.086l1.917-5.335 3.61.002 1.027-2.856-3.599-.002.58-1.655c.12-.296.41-.532.832-.532l4.257.001c.035-.05.068-.106.102-.157.901-1.291 2.177-2.336 3.372-3.073m3.571 6.74c-1.15 3.192-1.987 3.995-3.245 3.995h-.002c-1.227-.001-1.654-.786-.508-3.963.855-2.371 1.965-3.888 3.306-3.888h.003c1.275.001 1.567.75.446 3.856m3.952-5.466c-.672-.973-1.82-1.467-3.42-1.468a6.95 6.95 0 0 0 -3.012.698c-1.361.652-2.595 1.74-3.602 3.184a13.864 13.864 0 0 0 -1.654 3.24c-.828 2.293-.818 4.155.03 5.381.477.694 1.473 1.521 3.501 1.524h.007c3.692 0 6.449-2.45 8.192-7.283.462-1.28 1.07-3.665-.042-5.276"/></g></g></svg>