<svg width="29" height="29" xmlns="http://www.w3.org/2000/svg">
  <g fill="none" fill-rule="evenodd">
    <circle stroke="#FFF" stroke-width="1.3" fill="#6551CC" fill-rule="nonzero" cx="13.6" cy="13.6" r="13.6"/>
    <path d="M4.14 16.188c1.43 5.335 6.914 8.5 12.248 7.071 5.335-1.43 8.5-6.913 7.071-12.247a9.98 9.98 0 00-1.5-3.198A10.004 10.004 0 0011.212 3.94" stroke="#FFF" stroke-width=".8"/>
    <g fill="#FFF" fill-rule="nonzero">
      <path d="M9.366 6.533a.856.856 0 00-.855.856 3.422 3.422 0 01-3.422 3.422.856.856 0 100 1.711 3.423 3.423 0 013.422 3.422.856.856 0 101.711 0 3.422 3.422 0 013.422-3.422.855.855 0 100-1.71 3.422 3.422 0 01-3.422-3.423.856.856 0 00-.856-.856zM18.7 13.067a.583.583 0 01-.583-.584 1.167 1.167 0 00-1.167-1.166.583.583 0 010-1.167 1.166 1.166 0 001.167-1.167.583.583 0 111.166 0 1.167 1.167 0 001.167 1.167.583.583 0 010 1.167 1.167 1.167 0 00-1.167 1.166.583.583 0 01-.583.584zM15.9 20.533a.544.544 0 01-.544-.544 2.178 2.178 0 00-2.178-2.178.544.544 0 110-1.089 2.178 2.178 0 002.178-2.178.544.544 0 011.088 0 2.178 2.178 0 002.178 2.178.545.545 0 010 1.09 2.178 2.178 0 00-2.178 2.177.544.544 0 01-.544.544z"/>
    </g>
  </g>
</svg>